<?xml version="1.0" encoding="UTF-8" standalone="no"?>
<svg
   xmlns:dc="http://purl.org/dc/elements/1.1/"
   xmlns:cc="http://creativecommons.org/ns#"
   xmlns:rdf="http://www.w3.org/1999/02/22-rdf-syntax-ns#"
   xmlns:svg="http://www.w3.org/2000/svg"
   xmlns="http://www.w3.org/2000/svg"
   viewBox="0 0 207.332 45.326668"
   height="45.326668"
   width="207.332"
   xml:space="preserve"
   id="svg2"
   version="1.1"><metadata
     id="metadata8"><rdf:RDF><cc:Work
         rdf:about=""><dc:format>image/svg+xml</dc:format><dc:type
           rdf:resource="http://purl.org/dc/dcmitype/StillImage" /></cc:Work></rdf:RDF></metadata><defs
     id="defs6" /><g
     transform="matrix(1.3333333,0,0,-1.3333333,0,45.326667)"
     id="g10"><g
       transform="translate(6.918,20.347)"
       id="g12"><g
         id="g14"><g
           id="g16"><g
             id="g18" /><g
             id="g20" /><g
             id="g22" /><g
             id="g24" /><g
             id="g26" /><g
             id="g28" /><g
             id="g30"><g
               transform="translate(81.303,3.52)"
               id="g32"><g
                 id="g34"><g
                   transform="translate(-88.221,-23.867)"
                   id="g36"><text
                     id="text40"
                     style="font-variant:normal;font-weight:normal;font-size:9.96259975px;font-family:CMR10;-inkscape-font-specification:CMR10;writing-mode:lr-tb;fill:#000000;fill-opacity:1;fill-rule:nonzero;stroke:none"
                     transform="matrix(1,0,0,-1,88.221,23.867)"><tspan
                       id="tspan38"
                       y="0"
                       x="0">A</tspan></text>
<g
                     transform="translate(88.221,23.867)"
                     id="g42" /></g></g><g
                 transform="translate(-81.303,-3.52)"
                 id="g44" /></g></g><g
             id="g46"><g
               transform="translate(138.204,3.52)"
               id="g48"><g
                 id="g50"><g
                   transform="translate(-145.122,-23.867)"
                   id="g52"><text
                     id="text56"
                     style="font-variant:normal;font-weight:normal;font-size:9.96259975px;font-family:CMR10;-inkscape-font-specification:CMR10;writing-mode:lr-tb;fill:#000000;fill-opacity:1;fill-rule:nonzero;stroke:none"
                     transform="matrix(1,0,0,-1,145.122,23.867)"><tspan
                       id="tspan54"
                       y="0"
                       x="0">B</tspan></text>
<g
                     transform="translate(145.122,23.867)"
                     id="g58" /></g></g><g
                 transform="translate(-138.204,-3.52)"
                 id="g60" /></g></g><g
             id="g62"><g
               transform="translate(-3.598,3.52)"
               id="g64"><g
                 id="g66"><g
                   transform="translate(-3.32,-23.867)"
                   id="g68"><text
                     id="text72"
                     style="font-variant:normal;font-weight:normal;font-size:9.96259975px;font-family:CMR10;-inkscape-font-specification:CMR10;writing-mode:lr-tb;fill:#000000;fill-opacity:1;fill-rule:nonzero;stroke:none"
                     transform="matrix(1,0,0,-1,3.32,23.867)"><tspan
                       id="tspan70"
                       y="0"
                       x="0">C</tspan></text>
<g
                     transform="translate(3.32,23.867)"
                     id="g74" /></g></g><g
                 transform="translate(3.598,-3.52)"
                 id="g76" /></g></g><g
             id="g78"><path
               id="path80"
               style="fill:#000000;fill-opacity:1;fill-rule:nonzero;stroke:none"
               d="m 87.87527,0 c 0,1.56564 -1.26919,2.83484 -2.83485,2.83484 -1.56564,0 -2.83485,-1.2692 -2.83485,-2.83484 0,-1.56564 1.26921,-2.83484 2.83485,-2.83484 1.56566,0 2.83485,1.2692 2.83485,2.83484 z" /></g><g
             id="g82"><path
               id="path84"
               style="fill:#000000;fill-opacity:1;fill-rule:nonzero;stroke:none"
               d="m 144.5689,0 c 0,1.56564 -1.2692,2.83484 -2.83486,2.83484 -1.56564,0 -2.83485,-1.2692 -2.83485,-2.83484 0,-1.56564 1.26921,-2.83484 2.83485,-2.83484 1.56566,0 2.83486,1.2692 2.83486,2.83484 z" /></g><g
             id="g86"><path
               id="path88"
               style="fill:#000000;fill-opacity:1;fill-rule:nonzero;stroke:none"
               d="m 2.83484,0 c 0,1.56564 -1.2692,2.83484 -2.83484,2.83484 -1.56564,0 -2.83484,-1.2692 -2.83484,-2.83484 0,-1.56564 1.2692,-2.83484 2.83484,-2.83484 1.56564,0 2.83484,1.2692 2.83484,2.83484 z" /></g><path
             id="path90"
             style="fill:none;stroke:#000000;stroke-width:0.3985;stroke-linecap:butt;stroke-linejoin:miter;stroke-miterlimit:10;stroke-dasharray:none;stroke-opacity:1"
             d="m 85.4987,-7.08669 h 55.77706" /><g
             transform="rotate(180,42.74935,-3.543345)"
             id="g92"><g
               id="g94"><path
                 id="path96"
                 style="fill:none;stroke:#000000;stroke-width:0.31878999;stroke-linecap:round;stroke-linejoin:round;stroke-miterlimit:10;stroke-dasharray:none;stroke-opacity:1"
                 d="M -1.19551,1.59401 C -1.09587,0.99626 0,0.09961 0.29886,0 0,-0.09961 -1.09587,-0.99626 -1.19551,-1.59401" /></g></g><g
             transform="translate(141.27576,-7.08669)"
             id="g98"><g
               id="g100"><path
                 id="path102"
                 style="fill:none;stroke:#000000;stroke-width:0.31878999;stroke-linecap:round;stroke-linejoin:round;stroke-miterlimit:10;stroke-dasharray:none;stroke-opacity:1"
                 d="M -1.19551,1.59401 C -1.09587,0.99626 0,0.09961 0.29886,0 0,-0.09961 -1.09587,-0.99626 -1.19551,-1.59401" /></g></g><g
             id="g104"><g
               transform="translate(101.54,-17.027)"
               id="g106"><g
                 id="g108"><g
                   transform="translate(-108.458,-3.32)"
                   id="g110"><text
                     id="text114"
                     style="font-variant:normal;font-weight:normal;font-size:9.96259975px;font-family:CMR10;-inkscape-font-specification:CMR10;writing-mode:lr-tb;fill:#000000;fill-opacity:1;fill-rule:nonzero;stroke:none"
                     transform="matrix(1,0,0,-1,108.458,3.32)"><tspan
                       id="tspan112"
                       y="0"
                       x="0 4.9812999 9.9625998">200</tspan></text>
<text
                     id="text118"
                     style="font-variant:normal;font-weight:normal;font-size:9.96259975px;font-family:CMMI10;-inkscape-font-specification:CMMI10;writing-mode:lr-tb;fill:#000000;fill-opacity:1;fill-rule:nonzero;stroke:none"
                     transform="matrix(1,0,0,-1,123.402,3.32)"><tspan
                       id="tspan116"
                       y="0"
                       x="0">m</tspan></text>
<g
                     transform="translate(108.458,3.32)"
                     id="g120" /></g></g><g
                 transform="translate(-101.54,17.027)"
                 id="g122" /></g></g><path
             id="path124"
             style="fill:none;stroke:#000000;stroke-width:0.3985;stroke-linecap:butt;stroke-linejoin:miter;stroke-miterlimit:10;stroke-dasharray:none;stroke-opacity:1"
             d="M 0.45827,-7.08669 H 84.58214" /><g
             transform="rotate(180,0.229135,-3.543345)"
             id="g126"><g
               id="g128"><path
                 id="path130"
                 style="fill:none;stroke:#000000;stroke-width:0.31878999;stroke-linecap:round;stroke-linejoin:round;stroke-miterlimit:10;stroke-dasharray:none;stroke-opacity:1"
                 d="M -1.19551,1.59401 C -1.09587,0.99626 0,0.09961 0.29886,0 0,-0.09961 -1.09587,-0.99626 -1.19551,-1.59401" /></g></g><g
             transform="translate(84.58214,-7.08669)"
             id="g132"><g
               id="g134"><path
                 id="path136"
                 style="fill:none;stroke:#000000;stroke-width:0.31878999;stroke-linecap:round;stroke-linejoin:round;stroke-miterlimit:10;stroke-dasharray:none;stroke-opacity:1"
                 d="M -1.19551,1.59401 C -1.09587,0.99626 0,0.09961 0.29886,0 0,-0.09961 -1.09587,-0.99626 -1.19551,-1.59401" /></g></g><g
             id="g138"><g
               transform="translate(30.674,-17.027)"
               id="g140"><g
                 id="g142"><g
                   transform="translate(-37.592,-3.32)"
                   id="g144"><text
                     id="text148"
                     style="font-variant:normal;font-weight:normal;font-size:9.96259975px;font-family:CMR10;-inkscape-font-specification:CMR10;writing-mode:lr-tb;fill:#000000;fill-opacity:1;fill-rule:nonzero;stroke:none"
                     transform="matrix(1,0,0,-1,37.592,3.32)"><tspan
                       id="tspan146"
                       y="0"
                       x="0 4.9812999 9.9625998">300</tspan></text>
<text
                     id="text152"
                     style="font-variant:normal;font-weight:normal;font-size:9.96259975px;font-family:CMMI10;-inkscape-font-specification:CMMI10;writing-mode:lr-tb;fill:#000000;fill-opacity:1;fill-rule:nonzero;stroke:none"
                     transform="matrix(1,0,0,-1,52.536,3.32)"><tspan
                       id="tspan150"
                       y="0"
                       x="0">m</tspan></text>
<g
                     transform="translate(37.592,3.32)"
                     id="g154" /></g></g><g
                 transform="translate(-30.674,17.027)"
                 id="g156" /></g></g></g></g></g></g></svg>