<svg xmlns="http://www.w3.org/2000/svg" xmlns:xlink="http://www.w3.org/1999/xlink" version="1.1" width="166.085pt" height="34.626pt" viewBox="0 0 166.085 34.626">
<path transform="matrix(1,0,0,-1,12.176,18.531)" stroke-width=".3985" stroke-linecap="butt" stroke-miterlimit="10" stroke-linejoin="miter" fill="none" stroke="#000000" d="M0 0H141.73404"/>
<path transform="matrix(1,0,0,-1,12.176,18.531)" stroke-width=".3985" stroke-linecap="butt" stroke-miterlimit="10" stroke-linejoin="miter" fill="none" stroke="#000000" d="M0 2.83484V-2.83484"/>
<text xml:space="preserve" transform="matrix(1 0 -0 1 0 34.626)" font-size="9.9626" font-family="CMR10"><tspan y="-3.321" x="3.321 8.3022999 12.725695">0cm</tspan></text>
<path transform="matrix(1,0,0,-1,12.176,18.531)" stroke-width=".3985" stroke-linecap="butt" stroke-miterlimit="10" stroke-linejoin="miter" fill="none" stroke="#000000" d="M28.3468 2.83484V-2.83484"/>
<text xml:space="preserve" transform="matrix(1 0 -0 1 0 34.626)" font-size="9.9626" font-family="CMR10"><tspan y="-3.321" x="31.667 36.6483 41.071695">1cm</tspan></text>
<path transform="matrix(1,0,0,-1,12.176,18.531)" stroke-width=".3985" stroke-linecap="butt" stroke-miterlimit="10" stroke-linejoin="miter" fill="none" stroke="#000000" d="M56.69362 2.83484V-2.83484"/>
<text xml:space="preserve" transform="matrix(1 0 -0 1 0 34.626)" font-size="9.9626" font-family="CMR10"><tspan y="-3.321" x="60.013 64.9943 69.417697">2cm</tspan></text>
<path transform="matrix(1,0,0,-1,12.176,18.531)" stroke-width=".3985" stroke-linecap="butt" stroke-miterlimit="10" stroke-linejoin="miter" fill="none" stroke="#000000" d="M85.04042 2.83484V-2.83484"/>
<text xml:space="preserve" transform="matrix(1 0 -0 1 0 34.626)" font-size="9.9626" font-family="CMR10"><tspan y="-3.321" x="88.36 93.3413 97.764698">3cm</tspan></text>
<path transform="matrix(1,0,0,-1,12.176,18.531)" stroke-width=".3985" stroke-linecap="butt" stroke-miterlimit="10" stroke-linejoin="miter" fill="none" stroke="#000000" d="M113.38724 2.83484V-2.83484"/>
<text xml:space="preserve" transform="matrix(1 0 -0 1 0 34.626)" font-size="9.9626" font-family="CMR10"><tspan y="-3.321" x="116.706 121.6873 126.110698">4cm</tspan></text>
<path transform="matrix(1,0,0,-1,12.176,18.531)" stroke-width=".3985" stroke-linecap="butt" stroke-miterlimit="10" stroke-linejoin="miter" fill="none" stroke="#000000" d="M141.73404 2.83484V-2.83484"/>
<text xml:space="preserve" transform="matrix(1 0 -0 1 0 34.626)" font-size="9.9626" font-family="CMR10"><tspan y="-3.321" x="145.053 150.03429 154.45769">5cm</tspan></text>
<path transform="matrix(1,0,0,-1,12.176,18.531)" d="M0 5.66927V17.00824H34.01608V5.66927ZM34.01608 17.00824" fill="#b3b3ff"/>
<text xml:space="preserve" transform="matrix(1 0 -0 1 0 34.626)" font-size="9.9626" font-family="CMR10"><tspan y="-24.387" x="14.379 22.129902 28.21705 31.265606 35.689 40.122358">Object</tspan></text>
</svg>
