<svg xmlns="http://www.w3.org/2000/svg" xmlns:xlink="http://www.w3.org/1999/xlink" width="243.147" height="241.877" viewBox="0 0 182.36 181.408"><path stroke-width=".399" stroke-miterlimit="10" fill="none" stroke="#000" d="m85.239 96.169 28.347-42.52"/><path d="M86.648 96.169a1.409 1.409 0 1 0-2.818 0 1.409 1.409 0 0 0 2.818 0zM114.572 53.649a.986.986 0 1 0-1.972 0 .986.986 0 0 0 1.972 0zm-.986 0"/><symbol id="a"><path d="M.355.079C.341.066.308.038.308.02c0-.01.01-.02.02-.02.009 0 .014.007.019.013a.226.226 0 0 0 .079.065c.007.004.017.009.017.021 0 .01-.007.015-.014.02a.102.102 0 0 0-.041.057C.386.185.382.198.368.198S.348.185.348.177C.348.172.356.14.372.119H.035C.018.119 0 .119 0 .099s.018-.02.035-.02h.32z"/></symbol><symbol id="b"><path d="M.003.043 0 .027C0 .012.011 0 .028 0c.021 0 .033.018.035.021C.068.03.1.164.127.272.147.232.179.205.226.205c.117 0 .246.141.246.29 0 .106-.066.163-.139.163-.097 0-.202-.1-.232-.222L.003.043m.222.184c-.07 0-.086.08-.086.089l.008.037a.749.749 0 0 0 .06.188C.25.614.3.636.331.636.368.636.4.607.4.538A.606.606 0 0 0 .344.322C.311.259.263.227.225.227z"/></symbol><use xlink:href="#a" transform="matrix(9.9626 0 0 -9.9626 112.971 41.866)"/><use xlink:href="#b" transform="matrix(9.9626 0 0 -9.9626 111.307 49.159)"/><path stroke-width=".399" stroke-dasharray="2.98883,2.98883" stroke-miterlimit="10" fill="none" stroke="#000" d="m86.618 96.996 26.968 16.18V54.835"/><path stroke-width=".399" stroke-miterlimit="10" fill="none" stroke="#000" d="M170.28 96.169c0-46.967-38.074-85.04-85.041-85.04S.199 49.202.199 96.169c0 46.967 38.073 85.04 85.04 85.04 46.967 0 85.04-38.073 85.04-85.04zm-85.041 0"/><path stroke-width=".399" stroke-dasharray="2.98883,2.98883" stroke-miterlimit="10" fill="none" stroke="#000" d="M170.28 96.169c0-15.656-38.074-28.347-85.041-28.347S.199 80.513.199 96.17s38.073 28.347 85.04 28.347c46.967 0 85.04-12.691 85.04-28.347zm-85.041 0"/><path stroke-width=".399" stroke-miterlimit="10" fill="none" stroke="#000" d="m84.412 97.548-15.945 26.575"/><path stroke-width=".31899043" stroke-linecap="round" stroke-linejoin="round" fill="none" stroke="#000" d="M70.449 123.918c-.564-.222-1.897.256-2.136.461.069-.307-.136-1.708-.598-2.101"/><symbol id="c"><path d="M.305.313c.006.026.029.118.099.118.005 0 .029 0 .05-.013A.058.058 0 0 1 .406.364c0-.016.011-.035.038-.035.022 0 .054.018.054.058 0 .052-.059.066-.093.066C.347.453.312.4.3.377a.11.11 0 0 1-.108.076C.088.453.031.324.031.299c0-.01.01-.01.012-.01.008 0 .011.002.013.011.034.106.1.131.134.131.019 0 .054-.009.054-.067C.244.333.227.266.19.126.174.064.139.022.095.022c-.006 0-.029 0-.05.013C.07.04.092.061.092.089.092.116.07.124.055.124A.057.057 0 0 1 0 .066C0 .02.05 0 .094 0 .16 0 .196.07.199.076A.11.11 0 0 1 .307 0c.103 0 .16.129.16.154 0 .01-.009.01-.012.01C.446.164.444.16.442.153.409.046.341.022.309.022.27.022.254.054.254.088c0 .022.006.044.017.088l.034.137z"/></symbol><use xlink:href="#c" transform="matrix(9.9626 0 0 -9.9626 65.673 132.435)"/><path stroke-width=".399" stroke-miterlimit="10" fill="none" stroke="#000" d="M86.847 96.169h82.974"/><path stroke-width=".319" stroke-linecap="round" stroke-linejoin="round" fill="none" stroke="#000" d="M168.626 94.575c.1.598 1.195 1.494 1.494 1.594-.299.1-1.395.996-1.494 1.594"/><symbol id="d"><path d="M.457.586C.461.6.461.602.461.609c0 .018-.014.027-.029.027A.043.043 0 0 1 .397.615 1.87 1.87 0 0 1 .363.481L.318.301C.314.286.271.216.205.216.154.216.143.26.143.297c0 .046.017.108.051.196.016.041.02.052.02.072a.08.08 0 0 1-.082.082C.037.647 0 .502 0 .493c0-.01.01-.01.012-.01.01 0 .011.002.016.018.027.094.067.124.101.124.008 0 .025 0 .025-.032 0-.025-.01-.051-.017-.07a.66.66 0 0 1-.058-.21c0-.089.063-.119.122-.119.039 0 .073.017.101.045C.289.187.277.138.237.085.211.051.173.022.127.022.113.022.068.025.051.064c.016 0 .029 0 .043.012.01.009.02.022.02.041 0 .031-.027.035-.037.035C.054.152.021.136.021.087.021.037.065 0 .127 0 .23 0 .333.091.361.204l.096.382z"/></symbol><use xlink:href="#d" transform="matrix(9.9626 0 0 -9.9626 174.087 99.388)"/><path stroke-width=".399" stroke-miterlimit="10" fill="none" stroke="#000" d="M85.239 94.56V11.588"/><path stroke-width=".319" stroke-linecap="round" stroke-linejoin="round" fill="none" stroke="#000" d="M83.645 12.782c.598-.1 1.494-1.195 1.594-1.494.1.299.996 1.395 1.594 1.494"/><symbol id="e"><path d="M.09.094c.054.058.083.083.119.114 0 .001.062.054.098.09a.474.474 0 0 1 .117.145c0 .01-.009.01-.011.01C.406.453.403.451.398.442.368.394.347.378.323.378S.287.393.272.41C.253.433.236.453.203.453.128.453.082.36.082.339c0-.005.003-.011.012-.011.009 0 .011.005.013.011.019.046.077.047.085.047.021 0 .04-.007.063-.015C.295.356.306.356.332.356A1.501 1.501 0 0 0 .193.225L.103.141A.479.479 0 0 1 0 .01C0 0 .01 0 .012 0c.008 0 .01.002.016.013.023.035.053.062.085.062.023 0 .033-.009.058-.038C.188.016.206 0 .235 0c.099 0 .157.127.157.154 0 .005-.004.01-.012.01C.371.164.369.158.366.151a.13.13 0 0 0-.12-.084C.226.067.208.073.187.08a.178.178 0 0 1-.07.017C.115.097.099.097.09.094z"/></symbol><use xlink:href="#e" transform="matrix(9.9626 0 0 -9.9626 83.131 7.72)"/><path stroke-width=".399" stroke-miterlimit="10" fill="none" stroke="#000" d="M78.9 108.845c6.624 3.312 14.682.967 18.257-4.991"/><path stroke-width=".31899362" stroke-linecap="round" stroke-linejoin="round" fill="none" stroke="#000" d="M95.175 104.059c.564.222 1.896-.256 2.135-.461-.068.307.137 1.708.598 2.101"/><symbol id="f"><path d="M.413.511c0 .066-.018.205-.12.205C.154.716 0 .434 0 .205 0 .111.029 0 .12 0c.141 0 .293.287.293.511M.106.374c.017.064.037.144.077.215.027.049.064.105.109.105C.341.694.347.63.347.573c0-.049-.008-.1-.032-.199H.106m.2-.032a.893.893 0 0 0-.07-.203C.201.071.163.022.12.022.087.022.066.051.066.144c0 .042.006.1.032.198h.208z"/></symbol><use xlink:href="#f" transform="matrix(9.9626 0 0 -9.9626 85.557 107.903)"/><path stroke-width=".399" stroke-miterlimit="10" fill="none" stroke="#000" d="M92.72 84.122c-1.947-1.297-4.684-2.126-7.481-2.126"/><path stroke-width=".31898405" stroke-linecap="round" stroke-linejoin="round" fill="none" stroke="#000" d="M92.609 82.133c-.249.553.166 1.906.359 2.155-.304-.083-1.713.055-2.128.497"/><symbol id="g"><path d="m.388.875.003.014c0 .001 0 .01-.012.01-.01 0-.011-.003-.015-.02L.306.648C.147.643 0 .51 0 .374 0 .279.07.2.192.193L.169.099.147.011C.147.001.154 0 .159 0s.007.001.01.004a.247.247 0 0 1 .011.04l.038.149c.161.005.306.14.306.274 0 .079-.053.171-.192.181l.056.227M.197.215C.137.218.065.253.065.353c0 .12.086.26.235.273L.197.215m.129.411C.402.622.459.576.459.488.459.37.373.227.223.215l.103.411z"/></symbol><use xlink:href="#g" transform="matrix(9.9626 0 0 -9.9626 88.508 81.712)"/></svg>